<?xml version="1.0" encoding="iso-8859-1"?>
<!-- Generator: Adobe Illustrator 18.0.0, SVG Export Plug-In . SVG Version: 6.00 Build 0)  -->
<!DOCTYPE svg PUBLIC "-//W3C//DTD SVG 1.1//EN" "http://www.w3.org/Graphics/SVG/1.1/DTD/svg11.dtd">
<svg version="1.1" id="Capa_1" xmlns="http://www.w3.org/2000/svg" xmlns:xlink="http://www.w3.org/1999/xlink" x="0px" y="0px"
	 viewBox="0 0 432.468 432.468" style="enable-background:new 0 0 432.468 432.468;" xml:space="preserve">
<g>
	<path d="M255.035,71.799c0-21.395-17.406-38.801-38.801-38.801c-21.396,0-38.802,17.406-38.802,38.801s17.406,38.801,38.802,38.801
		C237.629,110.601,255.035,93.194,255.035,71.799z M192.432,71.799c0-13.124,10.677-23.801,23.802-23.801
		c13.124,0,23.801,10.677,23.801,23.801s-10.677,23.801-23.801,23.801C203.11,95.601,192.432,84.923,192.432,71.799z"/>
	<path d="M388.025,255.76l-7.145-80.374c-0.267-3.002-2.305-5.553-5.175-6.476c-2.869-0.922-6.012-0.038-7.979,2.246l-55.369,64.299
		c-2.04,2.369-2.396,5.754-0.896,8.496c1.501,2.742,4.543,4.263,7.639,3.823l13.524-1.932l-0.804,2.788
		c-6.162,21.363-18.812,39.721-36.581,53.09c-15.759,11.856-34.171,18.755-53.645,20.164V218.482
		c18.147-0.829,36.268-2.527,54.301-5.138c3.688-0.534,6.425-3.696,6.425-7.423v-28.439c0-3.727-2.737-6.889-6.425-7.423
		c-18.033-2.611-36.154-4.308-54.301-5.138v-25.963c27.109-10.272,46.438-36.495,46.438-67.159C288.033,32.209,255.824,0,216.234,0
		c-39.59,0-71.799,32.209-71.799,71.799c0,30.664,19.329,56.887,46.438,67.159v25.963c-18.147,0.829-36.268,2.527-54.301,5.138
		c-3.688,0.534-6.425,3.696-6.425,7.423v28.439c0,3.727,2.737,6.889,6.425,7.423c18.033,2.611,36.154,4.308,54.301,5.138v103.401
		c-19.474-1.409-37.886-8.308-53.645-20.164c-17.77-13.369-30.419-31.727-36.581-53.09l-0.804-2.787l13.524,1.932
		c3.088,0.443,6.138-1.081,7.639-3.823c1.501-2.742,1.144-6.127-0.896-8.496l-55.369-64.299c-1.966-2.284-5.108-3.169-7.979-2.246
		c-2.87,0.923-4.908,3.474-5.175,6.476l-7.145,80.374c-0.279,3.143,1.438,6.124,4.296,7.459c2.856,1.335,6.247,0.739,8.478-1.492
		l4.6-4.6c15.53,62.224,55.14,116.277,110.246,149.771l40.276,24.479c1.196,0.727,2.546,1.091,3.895,1.091
		c1.35,0,2.699-0.364,3.896-1.091l40.275-24.479c29.445-17.894,54.333-41.331,73.972-69.661
		c16.977-24.5,29.149-51.391,36.281-80.103l4.592,4.592c2.23,2.231,5.619,2.827,8.478,1.492
		C386.587,261.884,388.304,258.902,388.025,255.76z M159.435,71.799c0-31.319,25.48-56.799,56.799-56.799
		c31.319,0,56.799,25.48,56.799,56.799s-25.48,56.799-56.799,56.799C184.915,128.599,159.435,103.119,159.435,71.799z
		 M205.873,142.841c3.385,0.491,6.842,0.758,10.361,0.758c3.519,0,6.976-0.266,10.361-0.758v21.579
		c-6.907-0.129-13.815-0.129-20.722,0V142.841z M145.146,184.014c47.205-6.258,94.97-6.258,142.175,0v15.375
		c-47.205,6.259-94.97,6.259-142.175,0V184.014z M364.055,234.968c-2.656,0.818-4.642,3.039-5.159,5.77
		c-6.023,31.77-18.421,61.362-36.847,87.955c-18.435,26.591-41.795,48.59-69.435,65.387l-36.38,22.111l-36.381-22.111
		c-55.458-33.708-94.196-89.599-106.282-153.342c-0.518-2.731-2.503-4.952-5.159-5.77c-2.521-0.779-5.25-0.172-7.201,1.569
		l3.746-42.144l30.745,35.704l-5.22-0.746c-2.517-0.355-5.049,0.583-6.719,2.502c-1.67,1.92-2.253,4.556-1.547,7.001l4.019,13.931
		c7.071,24.514,21.585,45.579,41.975,60.919s44.651,23.448,70.163,23.448c4.142,0,7.5-3.358,7.5-7.5v-110.67
		c3.453,0.064,6.907,0.1,10.361,0.1c3.454,0,6.908-0.035,10.361-0.1v110.67c0,4.142,3.358,7.5,7.5,7.5
		c25.512,0,49.773-8.108,70.163-23.448s34.905-36.405,41.975-60.918l4.019-13.931c0.706-2.445,0.123-5.082-1.547-7.001
		c-1.671-1.92-4.204-2.858-6.719-2.502l-5.22,0.746l30.745-35.704l3.746,42.144C369.305,234.797,366.574,234.189,364.055,234.968z"
		/>
</g>
<g>
</g>
<g>
</g>
<g>
</g>
<g>
</g>
<g>
</g>
<g>
</g>
<g>
</g>
<g>
</g>
<g>
</g>
<g>
</g>
<g>
</g>
<g>
</g>
<g>
</g>
<g>
</g>
<g>
</g>
</svg>
